<?xml version="1.0" encoding="UTF-8" standalone="no"?>
<!-- Created with Inkscape (http://www.inkscape.org/) -->

<svg
   xmlns:i="http://ns.adobe.com/AdobeIllustrator/10.0/"
   xmlns:dc="http://purl.org/dc/elements/1.1/"
   xmlns:cc="http://creativecommons.org/ns#"
   xmlns:rdf="http://www.w3.org/1999/02/22-rdf-syntax-ns#"
   xmlns:svg="http://www.w3.org/2000/svg"
   xmlns="http://www.w3.org/2000/svg"
   xmlns:sodipodi="http://sodipodi.sourceforge.net/DTD/sodipodi-0.dtd"
   xmlns:inkscape="http://www.inkscape.org/namespaces/inkscape"
   width="765"
   height="990"
   id="svg3613"
   version="1.1"
   inkscape:version="0.48.1 r9760"
   sodipodi:docname="cartoon_girl.svg">
  <defs
     id="defs3615">
    <inkscape:path-effect
       effect="spiro"
       id="path-effect3800"
       is_visible="true" />
    <filter
       color-interpolation-filters="sRGB"
       inkscape:collect="always"
       id="filter3920"
       x="-0.177917"
       width="1.355834"
       y="-0.36863166"
       height="1.7372633">
      <feGaussianBlur
         inkscape:collect="always"
         stdDeviation="1.794588"
         id="feGaussianBlur3922" />
    </filter>
    <filter
       inkscape:collect="always"
       id="filter4633">
      <feGaussianBlur
         inkscape:collect="always"
         stdDeviation="2.2317548"
         id="feGaussianBlur4635" />
    </filter>
  </defs>
  <sodipodi:namedview
     id="base"
     pagecolor="#ffffff"
     bordercolor="#666666"
     borderopacity="1.0"
     inkscape:pageopacity="0.0"
     inkscape:pageshadow="2"
     inkscape:zoom="1.0525253"
     inkscape:cx="383.50705"
     inkscape:cy="455.52206"
     inkscape:document-units="px"
     inkscape:current-layer="layer1"
     showgrid="false"
     inkscape:window-width="1280"
     inkscape:window-height="745"
     inkscape:window-x="0"
     inkscape:window-y="26"
     inkscape:window-maximized="1" />
  <metadata
     id="metadata3618">
    <rdf:RDF>
      <cc:Work
         rdf:about="">
        <dc:format>image/svg+xml</dc:format>
        <dc:type
           rdf:resource="http://purl.org/dc/dcmitype/StillImage" />
        <dc:title></dc:title>
      </cc:Work>
    </rdf:RDF>
  </metadata>
  <g
     inkscape:label="Layer 1"
     inkscape:groupmode="layer"
     id="layer1"
     transform="translate(0,-62.362183)">
    <path
       style="fill:#87aade;stroke:#000000;stroke-width:1px;stroke-linecap:butt;stroke-linejoin:miter;stroke-opacity:1"
       d="m 544.84546,210.68961 c 0,0 -0.27448,-21.24223 -12.09275,-42.99644 -4.92444,-9.06455 -14.10821,-27.54459 -14.10821,-27.54459 0,0 -0.90496,-11.26632 5.37456,-14.78002 5.81044,-3.25123 8.43634,-11.41415 14.78002,-13.43639 7.09245,-2.26093 15.21812,0.0254 22.17004,2.68728 7.6584,2.93237 13.07659,9.96672 20.15458,14.1082 5.63955,3.29982 5.40859,9.29962 3.35909,13.43639 -6.23258,12.58 -33.59096,59.79192 -33.59096,59.79192 l 14.1082,-61.80738 c 0,0 -9.00963,-10.18564 -15.45184,-6.71819 -5.93213,3.1929 -19.48276,5.37455 -19.48276,5.37455 0,0 5.88614,10.95222 10.07729,15.45185 6.00554,6.44756 4.46612,19.62761 6.04637,29.56005 1.23953,7.79092 2.68728,23.51367 2.68728,23.51367 z"
       id="path4536"
       inkscape:connector-curvature="0"
       transform="translate(0,62.362183)"
       sodipodi:nodetypes="cscsssssccscsscc" />
    <path
       style="fill:#002255;stroke:#000000;stroke-width:1px;stroke-linecap:butt;stroke-linejoin:miter;stroke-opacity:1"
       d="m 532.08089,232.18783 c 0,0 8.31865,-32.85509 20.15458,-43.66826 12.81185,-11.70476 30.59998,-17.58334 49.04281,-17.4673 13.66557,-3.01252 12.76456,6.71819 12.76456,6.71819 l 3.3591,22.84186 -38.2937,-4.70274 -0.67182,19.48277 c 0,0 13.44913,-9.65306 18.13912,-6.04638 9.88818,7.60417 23.51368,4.03092 23.51368,4.03092 l -12.09275,26.87277 -26.87277,-8.06184 -0.67182,28.21642 20.8264,60.46373 c 0,0 -8.73365,5.03864 -14.1082,3.02319 -4.50327,-1.68873 -14.10821,3.02318 -14.10821,3.02318 l -22.17004,-66.5101 z"
       id="path4532"
       inkscape:connector-curvature="0"
       transform="translate(0,62.362183)"
       sodipodi:nodetypes="cscccccscccccsccc" />
    <path
       style="fill:#87aade;stroke:#000000;stroke-width:1px;stroke-linecap:butt;stroke-linejoin:miter;stroke-opacity:1"
       d="m 536.1118,278.54336 c 0,0 2.03238,22.16115 4.70274,32.91914 3.23022,13.01346 -7.39001,37.62188 -7.39001,37.62188 0,0 10.16794,5.84958 14.1082,10.07729 6.27012,6.72752 18.13912,-0.67182 18.13912,-0.67182 0,0 -3.6036,-14.19531 -11.42092,-24.18549 -2.44276,-9.99018 4.23481,-20.56728 -1.34364,-34.9346 -4.28671,-11.04042 -9.40547,-34.26279 -9.40547,-34.26279 z"
       id="path4534"
       inkscape:connector-curvature="0"
       transform="translate(0,62.362183)"
       sodipodi:nodetypes="cscsccscc" />
    <path
       style="fill:#ff9955;fill-opacity:1;stroke:#000000;stroke-width:1px;stroke-linecap:butt;stroke-linejoin:miter;stroke-opacity:1"
       d="m 508.41584,588.0314 c 54.48982,87.31494 59.93838,3.62795 87.27284,-61.70583 l 21.32984,11.25219 c 0,0 13.13629,8.95086 15.90961,2.11627 1.74932,-4.31105 -3.64746,-9.68898 -3.64746,-9.68898 l -11.82005,-13.4145 14.90604,1.50087 c 0,0 11.85164,2.80565 14.17763,-3.95046 2.44365,-7.09789 -5.57569,-9.42716 -5.57569,-9.42716 l -14.06833,-6.2905 9.82028,-8.57831 c 0,0 5.21693,-4.51377 5.06557,-8.65271 -0.30413,-8.31868 -13.98073,-5.48542 -13.98073,-5.48542 0,0 -13.59905,14.37711 -15.90049,14.59796 -1.15073,0.11043 -1.66864,-12.11603 -1.5459,-17.11374 0.19295,-7.8565 -5.80689,-9.23095 -7.90132,-10.08533 -4.72258,-1.92648 -10.88232,4.14291 -11.13035,6.99794 -0.24802,2.85502 -0.46915,23.32931 -5.17199,28.47101 -30.42944,37.69602 -18.81072,129.28545 -62.81286,71.04516 -6.4557,7.40472 -8.8187,10.71584 -14.92666,18.41153 z"
       id="path3818"
       inkscape:connector-curvature="0"
       sodipodi:nodetypes="cccscccscccscssszcccc" />
    <path
       style="fill:#ff9955;fill-opacity:1;stroke:#000000;stroke-width:1px;stroke-linecap:butt;stroke-linejoin:miter;stroke-opacity:1"
       d="m 429.29253,780.27536 -18.47503,3.3591 -3.695,28.88823 16.79548,18.47503 28.21641,-38.96552 -8.39774,-13.7723 z"
       id="path4583"
       inkscape:connector-curvature="0" />
    <path
       style="fill:#5f8dd3;stroke:#000000;stroke-width:1px;stroke-linecap:butt;stroke-linejoin:miter;stroke-opacity:1"
       d="m 417.20164,833.74708 c 0,0 -9.05373,-7.62912 -12.01939,-9.45002 -3.66589,-2.25082 -6.7182,-10.58115 -6.7182,-10.58115 l 3.52705,-22.50595 9.74139,-1.51159 c 0,0 -3.27806,18.18648 -1.34364,21.66617 2.79231,5.02287 13.43638,14.27617 13.43638,14.27617 z"
       id="path4573"
       inkscape:connector-curvature="0"
       sodipodi:nodetypes="cscccscc" />
    <path
       inkscape:connector-curvature="0"
       id="path4593"
       d="m 331.8935,773.72787 16.75553,8.47718 -4.67767,28.74547 -21.35815,12.9323 -15.96269,-45.38359 11.96942,-10.81348 z"
       style="fill:#ff9955;fill-opacity:1;stroke:#000000;stroke-width:1px;stroke-linecap:butt;stroke-linejoin:miter;stroke-opacity:1" />
    <path
       sodipodi:nodetypes="cscccscc"
       inkscape:connector-curvature="0"
       id="path4595"
       d="m 328.695,828.29948 c 0,0 10.4249,-4.60745 13.78609,-5.50922 4.15481,-1.11468 9.45128,-8.23215 9.45128,-8.23215 l 3.02265,-22.57922 -8.9086,-4.22095 c 0,0 -2.03227,18.36746 -4.87685,21.15289 -4.10611,4.02071 -16.94314,9.86281 -16.94314,9.86281 z"
       style="fill:#5f8dd3;stroke:#000000;stroke-width:1px;stroke-linecap:butt;stroke-linejoin:miter;stroke-opacity:1" />
    <path
       style="fill:#447821;fill-opacity:1;stroke:#000000;stroke-width:1px;stroke-linecap:butt;stroke-linejoin:miter;stroke-opacity:1"
       d="m 312.62093,777.07559 c 0,0 -28.88568,-15.09308 -47.89839,-15.51652 -7.56182,-0.16843 -23.97163,4.09063 -30.89984,7.12533 -8.98189,3.93427 -18.49142,8.98409 -23.88347,17.17424 -5.1405,7.80807 -6.04028,27.38667 -6.04028,27.38667 0,0 19.00007,10.36553 29.40338,12.85351 19.80565,4.73657 37.82903,7.5139 58.19233,7.70027 13.99497,0.12809 23.77577,-0.51618 36.90506,-5.36357 2.04348,-11.86172 -13.13517,-33.0784 -15.77879,-51.35993 z"
       id="path4597"
       inkscape:connector-curvature="0"
       sodipodi:nodetypes="cssscsscc" />
    <path
       sodipodi:nodetypes="cscc"
       inkscape:connector-curvature="0"
       id="path4599"
       d="m 478.52545,791.23941 c 0,0 14.21665,-2.32458 19.64044,1.37026 2.9267,1.99375 4.56754,9.59184 4.56754,9.59184 z"
       style="opacity:0.5;fill:#cccccc;stroke:none;filter:url(#filter3920)"
       transform="matrix(-0.95866338,-0.28454264,-0.28454264,0.95866338,965.46214,147.85848)" />
    <path
       style="fill:#440055;stroke:#000000;stroke-width:1px;stroke-linecap:butt;stroke-linejoin:miter;stroke-opacity:1"
       d="m 310.38052,550.63018 c 0,0 -9.50261,31.62197 -6.56917,47.02735 1.27607,6.70149 8.78304,13.68752 13.28736,18.81094 12.56111,14.28758 26.87277,25.52913 26.87277,25.52913 0,0 -0.29617,21.94384 -3.3591,32.24733 -3.50437,11.7885 -24.85731,28.21641 -24.85731,28.21641 l 38.96552,31.5755 c 0,0 3.46499,-14.80964 5.37456,-22.17003 5.48476,-21.14084 28.88823,-58.44828 28.88823,-58.44828 l 32.24732,-1e-5 -27.00202,75.45453 c 0,0 22.4764,2.90072 29.80457,-1.42515 11.0022,-6.49468 29.95359,1.11311 29.95359,1.11311 l 0.83483,-77.15794 c 0,0 28.73129,-12.31991 40.98098,-21.49822 7.16859,-5.3712 10.16208,-13.42298 12.09274,-22.17003 3.25649,-14.75377 -5.37455,-43.66826 -5.37455,-43.66826 z"
       id="path4571"
       inkscape:connector-curvature="0"
       transform="translate(0,62.362183)"
       sodipodi:nodetypes="csscsccscccsccsscc" />
    <path
       sodipodi:nodetypes="cssscsscc"
       inkscape:connector-curvature="0"
       id="path3840"
       d="m 446.81587,788.96857 c 0,0 31.98627,-6.24997 50.33354,-1.24599 7.29717,1.9902 21.81677,10.74249 27.59509,15.62312 7.49114,6.32737 15.17069,13.87432 18.0094,23.26018 2.70628,8.948 -2.00208,27.97332 -2.00208,27.97332 0,0 -21.1641,4.53072 -31.84531,3.95567 -20.33471,-1.09477 -38.40333,-3.56067 -57.97792,-9.17623 -13.45291,-3.85937 -22.64608,-7.26006 -33.85336,-15.64292 1.41616,-11.95286 22.00442,-27.97354 29.74064,-44.74715 z"
       style="fill:#447821;fill-opacity:1;stroke:#000000;stroke-width:1px;stroke-linecap:butt;stroke-linejoin:miter;stroke-opacity:1" />
    <path
       style="opacity:0.5;fill:#cccccc;stroke:none;filter:url(#filter3920)"
       d="m 478.52545,791.23941 c 0,0 14.21665,-2.32458 19.64044,1.37026 2.9267,1.99375 4.56754,9.59184 4.56754,9.59184 z"
       id="path3868"
       inkscape:connector-curvature="0"
       sodipodi:nodetypes="cscc" />
    <path
       style="fill:#447821;fill-opacity:1;stroke:#000000;stroke-width:1px;stroke-linecap:butt;stroke-linejoin:miter;stroke-opacity:1"
       d="m 303.63597,584.33351 c 0,0 15.46381,0.3199 20.25749,-0.54462 11.83225,-1.64756 13.29816,-10.21007 11.5889,-19.74271 -1.11926,-8.04478 -6.25028,-7.41049 -9.65,-8.71327 l -15.95571,-2.77125 c 0,0 -2.14206,7.65681 -3.02318,12.5966 -0.54789,3.07165 -3.2175,19.17525 -3.2175,19.17525 z"
       id="path4621"
       inkscape:connector-curvature="0"
       transform="translate(0,62.362183)"
       sodipodi:nodetypes="cccccsc" />
    <path
       sodipodi:type="arc"
       style="fill:#447821;fill-opacity:1;fill-rule:nonzero;stroke:#000000;stroke-width:1;stroke-linecap:square;stroke-linejoin:miter;stroke-miterlimit:4;stroke-opacity:1;stroke-dasharray:none;stroke-dashoffset:5.3"
       id="path4623"
       sodipodi:cx="399.04031"
       sodipodi:cy="591.90979"
       sodipodi:rx="34.203453"
       sodipodi:ry="21.852207"
       d="m 433.24377,591.90979 a 34.203453,21.852207 0 1 1 -68.40691,0 34.203453,21.852207 0 1 1 68.40691,0 z"
       transform="matrix(0.85389281,0,0,1,57.599454,51.687519)" />
    <path
       transform="matrix(0.64972528,0,0,0.82867055,222.46231,165.84874)"
       d="m 433.24377,591.90979 a 34.203453,21.852207 0 1 1 -68.40691,0 34.203453,21.852207 0 1 1 68.40691,0 z"
       sodipodi:ry="21.852207"
       sodipodi:rx="34.203453"
       sodipodi:cy="591.90979"
       sodipodi:cx="399.04031"
       id="path4625"
       style="fill:#447821;fill-opacity:1;fill-rule:nonzero;stroke:#000000;stroke-width:1;stroke-linecap:square;stroke-linejoin:miter;stroke-miterlimit:4;stroke-opacity:1;stroke-dasharray:none;stroke-dashoffset:5.3"
       sodipodi:type="arc" />
    <path
       style="fill:#aa0044;stroke:#000000;stroke-width:1px;stroke-linecap:butt;stroke-linejoin:miter;stroke-opacity:1"
       d="m 456.16531,420.96905 c 0,0 15.81823,-1.03027 22.84185,0.67182 8.52742,2.06651 15.18532,6.28423 17.46731,10.74911 4.89476,15.39098 19.48275,61.13555 19.48275,61.13555 l 18.81095,18.13913 -28.21642,24.18549 12.09275,39.63734 c 0,0 -41.21482,8.16067 -61.80737,6.04637 -17.96709,-1.84474 -33.98467,-12.7592 -51.73009,-16.12366 -24.26614,-4.60077 -49.61362,-0.88252 -73.90012,-5.37455 -12.19108,-2.25486 -35.60643,-10.74911 -35.60643,-10.74911 0,0 30.50217,-28.44619 42.99644,-45.0119 9.27337,-12.29523 22.84186,-47.02735 22.84186,-47.02735 l -71.88467,-8.73365 20.8264,-57.10464 70.54102,29.56005 z"
       id="path4560"
       inkscape:connector-curvature="0"
       transform="translate(0,62.362183)"
       sodipodi:nodetypes="cscccccssscsccccc" />
    <g
       id="g4556"
       transform="translate(-13.12572,0)">
      <path
         sodipodi:nodetypes="ccccsscsscc"
         inkscape:connector-curvature="0"
         id="path4552"
         d="m 422.57434,403.50175 c 0,0 -10.38112,5.90435 -13.43638,10.07729 -3.05526,4.17294 -6.58496,7.89652 -4.70274,13.43638 1.88222,5.53986 18.30707,10.4132 18.30707,10.4132 0,0 19.392,4.6422 28.72028,2.35137 9.77441,-2.40039 19.82587,-7.83066 25.52914,-16.12366 1.29409,-1.88171 1.34363,-6.7182 1.34363,-6.7182 0,0 0.77389,-11.07009 -2.01545,-15.45184 -1.56796,-2.46309 -4.56713,-3.95666 -7.39002,-4.70273 -4.33552,-1.14585 -13.43638,0.67181 -13.43638,0.67181 z"
         style="fill:#cccccc;stroke:#000000;stroke-width:1px;stroke-linecap:butt;stroke-linejoin:miter;stroke-opacity:1"
         transform="translate(0,62.362183)" />
      <path
         sodipodi:nodetypes="cssssc"
         transform="translate(0,62.362183)"
         inkscape:connector-curvature="0"
         id="path4554"
         d="m 427.44503,422.81655 c 0,0 14.66029,0.41891 21.83413,-0.83977 5.44099,-0.95465 10.96896,-2.33774 15.78775,-5.03865 3.80865,-2.13473 7.50256,-4.92284 9.90934,-8.56569 0.81007,-1.2261 1.36998,-2.72957 1.34364,-4.19887 -0.0267,-1.48732 -1.15531,-4.25825 -1.15531,-4.25825"
         style="fill:none;stroke:#000000;stroke-width:1px;stroke-linecap:butt;stroke-linejoin:miter;stroke-opacity:1" />
    </g>
    <path
       style="fill:#ff9955;fill-opacity:1;stroke:#000000;stroke-width:1px;stroke-linecap:butt;stroke-linejoin:miter;stroke-opacity:1"
       d="m 284.64818,310.8993 c 0,0 -32.4368,-25.7532 -37.12039,-8.7953 -2.51434,9.10366 -3.30212,38.82426 5.22841,42.8775 14.0079,6.65579 38.992,3.79264 38.992,3.79264 0,0 25.596,52.46467 50.58389,70.61014 25.23445,23.12771 57.28112,21.67435 79.25405,21.87566 2.89602,-0.006 -7.07347,43.69819 -4.28106,43.51709 16.01943,0.12542 15.00364,0.7126 27.58465,-2.59973 2.44357,-0.59379 5.81956,-44.77687 8.0179,-45.60799 35.39192,-13.38061 49.6149,-9.52458 65.74397,-43.75149 7.03576,-14.93035 12.78744,-51.29904 12.78744,-51.29904 0,0 14.70065,-5.67445 23.0756,-17.6919 4.55226,-6.53217 11.32043,-35.87931 -1.61796,-39.76539 -12.02641,-3.61215 -25.83108,17.39676 -25.83108,17.39676 0,0 -23.32355,-62.93608 -42.41272,-71.51644 -24.21883,-10.88608 -53.38851,-6.48628 -79.62306,-2.38664 -38.39603,6.0001 -81.43887,12.43092 -109.91223,38.87945 -10.60617,9.85194 -10.46941,44.46468 -10.46941,44.46468 z"
       id="path3753"
       inkscape:connector-curvature="0"
       sodipodi:nodetypes="csscccccsscsscsssc" />
    <path
       style="fill:none;stroke:#000000;stroke-width:1px;stroke-linecap:butt;stroke-linejoin:miter;stroke-opacity:1"
       d="m 259.30291,309.30479 c 0,0 -4.69369,12.85627 -3.87569,16.79466 1.18305,5.69595 4.78757,9.29319 9.04328,9.04327 4.91883,-0.28886 9.15714,-11.60395 9.15714,-11.60395 l -6.65067,-3.80039"
       id="path3761"
       inkscape:connector-curvature="0"
       sodipodi:nodetypes="csscc" />
    <path
       style="fill:none;stroke:#000000;stroke-width:1px;stroke-linecap:butt;stroke-linejoin:miter;stroke-opacity:1"
       d="m 542.10932,301.86628 c 0,0 6.03481,-4.42595 9.28885,-0.50387 1.91039,6.02152 0.81984,11.95716 -3.94016,15.92902"
       id="path3763"
       inkscape:connector-curvature="0"
       sodipodi:nodetypes="ccc" />
    <path
       style="fill:#ff9955;stroke:#000000;stroke-width:1;stroke-linecap:butt;stroke-linejoin:miter;stroke-miterlimit:4;stroke-opacity:1;stroke-dasharray:none"
       d="m 190.16723,384.18476 12.35581,-10.45954 c 0,0 5.82208,-2.83323 3.80169,-12.31551 -1.47025,-6.90029 -12.28984,-1.13583 -12.28984,-1.13583 l -13.84053,10.02015 -3.31217,-21.95878 c 0,0 -0.90829,-14.10306 -13.80567,-10.13837 -6.1912,1.90319 -2.64085,16.73775 -2.64085,16.73775 l 6.14094,18.56996 -22.52838,-6.35721 c 0,0 -9.07279,-3.65196 -10.83522,4.34 -1.86741,8.468 6.66312,11.45373 6.66312,11.45373 l 22.58957,3.45389 -28.69014,5.60552 c 0,0 -11.1769,2.79152 -9.71987,11.66882 1.15196,7.01858 14.68038,3.4702 14.68038,3.4702 l 20.35433,-6.39947 -9.59034,20.07686 c 0,0 -1.41828,2.8009 3.10098,6.38705 4.93669,3.91739 8.73765,-1.91872 8.73765,-1.91872 l 5.68122,-9.0944 8.28121,-8.36341 122.81966,78.28621 10.2037,-27.82864 z"
       id="path3816"
       inkscape:connector-curvature="0"
       sodipodi:nodetypes="ccscccscccscccscccscccccc" />
    <path
       style="fill:none;stroke:#000000;stroke-width:1px;stroke-linecap:butt;stroke-linejoin:miter;stroke-opacity:1"
       d="m 383.35828,307.06018 c 0,0 4.25521,-25.64386 12.30574,-25.04369 7.75217,0.57793 8.92002,17.49186 8.92002,17.49186"
       id="path3854"
       inkscape:connector-curvature="0"
       sodipodi:nodetypes="csc" />
    <path
       sodipodi:nodetypes="csc"
       inkscape:connector-curvature="0"
       id="path3856"
       d="m 416.26909,298.95197 c 0,0 2.23975,-17.58202 10.29028,-16.98185 7.75217,0.57793 10.26366,20.17913 10.26366,20.17913"
       style="fill:none;stroke:#000000;stroke-width:1px;stroke-linecap:butt;stroke-linejoin:miter;stroke-opacity:1" />
    <path
       style="fill:#ff9955;stroke:#000000;stroke-width:1px;stroke-linecap:butt;stroke-linejoin:miter;stroke-opacity:1"
       d="m 403.68275,336.18938 c 0,0 -11.95128,-3.81107 3.69832,-17.93061 5.77173,-5.20743 13.51225,7.24319 13.51225,7.24319"
       id="path3858"
       inkscape:connector-curvature="0"
       sodipodi:nodetypes="csc" />
    <g
       id="g4566">
      <path
         sodipodi:nodetypes="cssc"
         inkscape:connector-curvature="0"
         id="path3860"
         d="m 347.59633,367.35252 c 0,0 36.16164,33.54643 51.2916,38.44856 20.86483,6.76024 30.86948,8.50433 51.66442,1.53208 16.66332,-5.58697 43.60674,-43.36712 43.60674,-43.36712"
         style="fill:none;stroke:#000000;stroke-width:1px;stroke-linecap:butt;stroke-linejoin:miter;stroke-opacity:1" />
      <path
         sodipodi:nodetypes="csc"
         inkscape:connector-curvature="0"
         id="path3862"
         d="m 487.30777,360.76876 c 0,0 3.75805,2.64773 5.93781,3.19728 3.69079,0.93051 11.41886,0 11.41886,0"
         style="fill:none;stroke:#000000;stroke-width:1px;stroke-linecap:butt;stroke-linejoin:miter;stroke-opacity:1" />
      <path
         sodipodi:nodetypes="csc"
         inkscape:connector-curvature="0"
         id="path3864"
         d="m 337.94908,368.53359 c 0,0 7.72431,0.38639 10.50535,-1.82702 2.45586,-1.9546 3.65403,-8.67833 3.65403,-8.67833"
         style="fill:none;stroke:#000000;stroke-width:1px;stroke-linecap:butt;stroke-linejoin:miter;stroke-opacity:1" />
    </g>
    <path
       inkscape:connector-curvature="0"
       inkscape:export-ydpi="90"
       inkscape:export-xdpi="90"
       inkscape:export-filename="/home/edycop/path45.png"
       style="fill:#c3f600;fill-opacity:1;stroke-linecap:round"
       id="path19"
       d="m 448.34157,548.02386 c 0.0774,2.00586 -0.60636,2.98056 -1.22471,4.70413 l -1.1121,0.53385 c -0.90907,1.7053 0.0903,1.08263 -0.56078,2.43841 -1.42084,1.21796 -4.30556,3.80996 -5.22928,4.04742 -0.67517,-0.0141 0.45673,-0.76881 0.60465,-1.06354 -1.89994,1.25864 -1.52495,1.88962 -4.43117,2.65594 l -0.0843,-0.18349 c -7.16447,3.25454 -17.11728,-3.19392 -16.98661,-11.99114 -0.0756,0.55792 -0.21762,0.41844 -0.37581,0.6426 -0.36986,-4.52564 2.16568,-9.07119 6.44194,-10.9301 4.18262,-1.99756 9.08592,-1.17894 12.0799,1.5185 -1.64448,-2.08057 -4.92055,-4.28652 -8.8004,-4.08228 -3.80242,0.0598 -7.36052,2.39192 -8.54745,4.92498 -1.94725,1.18309 -2.17432,4.56299 -3.02233,5.18236 -1.14304,8.10314 2.14762,11.60259 7.71492,15.72141 0.87383,0.56954 0.24596,0.65672 0.36295,1.0901 -1.84916,-0.83522 -3.54182,-2.09718 -4.93514,-3.64226 0.73966,1.04361 1.53701,2.05817 2.5682,2.85519 -1.7451,-0.5687 -4.07508,-4.07897 -4.75366,-4.22176 3.00596,5.19564 12.19421,9.11188 17.00811,7.16828 -2.22764,0.0797 -5.05643,0.044 -7.55754,-0.8485 -1.05358,-0.52222 -2.4805,-1.60236 -2.22503,-1.80411 6.56756,2.36702 13.3502,1.79166 19.03189,-2.60447 1.44664,-1.0876 3.02573,-2.93655 3.48246,-2.96146 -0.68721,0.99796 0.11782,0.47989 -0.41031,1.36076 1.43808,-2.24246 -0.62697,-0.91325 1.48799,-3.87223 l 0.78092,1.0378 c -0.29244,-1.86306 2.39535,-4.12297 2.12181,-7.067 0.6167,-0.89998 0.68721,0.96972 0.0336,3.04033 0.90743,-2.29727 0.24,-2.66672 0.4722,-4.56299 0.25027,0.63762 0.58316,1.31427 0.75258,1.9876 -0.59172,-2.2209 0.60465,-3.73857 0.90222,-5.0296 -0.29414,-0.12453 -0.91255,0.98135 -1.05535,-1.64055 0.0212,-1.13909 0.32947,-0.59694 0.44728,-0.87756 -0.23048,-0.12869 -0.83856,-1.00211 -1.20753,-2.67669 0.26574,-0.39436 0.71555,1.02036 1.08028,1.07764 -0.23488,-1.33087 -0.6382,-2.34626 -0.65545,-3.36828 -1.06645,-2.15031 -0.37753,0.28727 -1.24108,-0.92322 -1.13531,-3.4156 0.9409,-0.79288 1.08199,-2.34377 1.71847,2.40354 2.69805,6.13132 3.14964,7.67474 -0.34405,-1.88215 -0.89881,-3.70619 -1.57739,-5.47046 0.52374,0.21338 -0.84205,-3.8714 0.6803,-1.16648 -1.62469,-5.76601 -6.94776,-11.15426 -11.84585,-13.68151 0.59774,0.52885 1.35375,1.19305 1.08369,1.29766 -2.43751,-1.39895 -2.00919,-1.50938 -2.35837,-2.10051 -1.9825,-0.77959 -2.11496,0.064 -3.42654,0.002 -3.74136,-1.9162 -4.46211,-1.71279 -7.90502,-2.91165 l 0.15656,0.70736 c -2.47791,-0.79703 -2.88733,0.30055 -5.56478,0.002 -0.1625,-0.12204 0.85842,-0.44501 1.69958,-0.56208 -2.39623,0.30553 -2.28438,-0.45662 -4.629,0.0839 0.57713,-0.39104 1.18953,-0.6509 1.80534,-0.983 -1.95327,0.11457 -4.66508,1.09757 -3.82823,0.20258 -3.18661,1.37321 -8.8468,3.3002 -12.02307,6.17531 l -0.0997,-0.64426 c -1.45527,1.68622 -6.34659,5.03624 -6.73616,7.22226 l -0.38964,0.0872 c -0.75601,1.23788 -1.2471,2.64016 -1.84745,3.91291 -0.98998,1.62976 -1.45184,0.62766 -1.31075,0.88338 -1.94807,3.81246 -2.91738,7.01552 -3.75252,9.64406 0.59514,0.85929 0.0143,5.17406 0.23911,8.62702 -0.97704,17.05644 12.4006,33.61556 27.0237,37.43797 2.1433,0.7414 5.32991,0.71485 8.04089,0.7879 -3.19776,-0.88336 -3.61061,-0.46744 -6.72753,-1.51601 -2.24741,-1.02284 -2.7394,-2.18933 -4.33225,-3.52353 l 0.63046,1.07517 c -3.12212,-1.0669 -1.81561,-1.3201 -4.35629,-2.09638 l 0.67339,-0.84768 c -1.0123,-0.0747 -2.68087,-1.64552 -3.1367,-2.5181 l -1.1078,0.0423 c -1.32966,-1.58244 -2.03924,-2.72569 -1.98674,-3.61155 l -0.35781,0.61605 c -0.40511,-0.67167 -4.89474,-5.94287 -2.56559,-4.71577 -0.43264,-0.38025 -1.00806,-0.62019 -1.63161,-1.71528 l 0.47391,-0.52222 c -1.11895,-1.39231 -2.06245,-3.17649 -1.99024,-3.77095 0.59775,0.77877 1.0123,0.92489 1.42344,1.05856 -2.83051,-6.77807 -2.98967,-0.37278 -5.13207,-6.89928 l 0.45241,-0.0349 c -0.34666,-0.50727 -0.55907,-1.0544 -0.83774,-1.59322 l 0.19783,-1.89711 c -2.03671,-2.27153 -0.56941,-9.66814 -0.27436,-13.72385 0.20207,-1.64886 1.70033,-3.40482 2.83824,-6.15872 l -0.69324,-0.11457 c 1.32623,-2.23169 7.57042,-8.96576 10.46376,-8.62038 1.40106,-1.69867 -0.27867,-0.007 -0.55304,-0.43338 3.07825,-3.07438 4.04585,-2.17191 6.12288,-2.72568 2.2388,-1.28272 -1.92225,0.50146 -0.86087,-0.48901 3.87292,-0.95395 2.74364,-2.17025 7.79487,-2.65428 0.53326,0.29224 -1.23595,0.45165 -1.67973,0.83107 3.22529,-1.52431 10.20828,-1.17645 14.74611,0.84519 5.26111,2.37532 11.17589,9.39332 11.4098,15.99622 l 0.26573,0.0689 c -0.13416,2.62522 0.41634,5.6614 -0.53921,8.44935 l 0.64587,-1.32091"
       i:knockout="Off" />
    <text
       xml:space="preserve"
       style="font-size:28px;font-style:normal;font-variant:normal;font-weight:bold;font-stretch:condensed;text-align:start;line-height:125%;letter-spacing:0px;word-spacing:0px;writing-mode:lr-tb;text-anchor:start;fill:#cccccc;fill-opacity:1;stroke:none;font-family:Agency FB;-inkscape-font-specification:Agency FB Bold Condensed"
       x="372.99478"
       y="610.9458"
       id="text3935"
       sodipodi:linespacing="125%"><tspan
         sodipodi:role="line"
         id="tspan3937"
         x="372.99478"
         y="610.9458">d e b i a n</tspan></text>
    <path
       style="fill:#002255;stroke:#000000;stroke-width:1px;stroke-linecap:butt;stroke-linejoin:miter;stroke-opacity:1"
       d="m 390.99883,167.69317 c 0,0 62.3124,9.94059 89.35197,20.8264 23.00865,14.2449 45.0119,54.41736 45.0119,54.41736 0,0 9.95106,-14.5208 10.07728,-22.84185 0.2712,-17.8795 -9.22465,-34.8807 -20.15458,-49.71463 -9.39495,-12.7507 -18.42607,-25.226 -34.9346,-29.56005 -20.15657,-5.29178 -43.51722,-4.61395 -62.47919,4.03092 -5.34853,2.43843 -18.95288,4.95775 -24.33394,10.0586 -5.38106,5.10086 -2.53884,12.78325 -2.53884,12.78325 z"
       id="path4530"
       inkscape:connector-curvature="0"
       transform="translate(0,62.362183)"
       sodipodi:nodetypes="cccsssssc" />
    <path
       style="fill:#002255;stroke:#000000;stroke-width:1px;stroke-linecap:butt;stroke-linejoin:miter;stroke-opacity:1"
       d="m 393.68611,167.02135 c 0,0 -33.77427,27.68319 -85.99287,43.66826 -13.25308,4.22824 -19.48276,45.01189 -19.48276,45.01189 0,0 -10.45509,-10.11959 -15.81162,-15.04142 -3.62987,-3.33529 -13.43639,-6.01551 -13.43639,-6.01551 0,0 5.59387,-48.67237 18.4989,-65.60776 11.12818,-14.60361 29.78696,-23.51292 47.69917,-27.54459 16.22014,-3.65082 34.86473,-3.44584 49.71463,4.03092 4.25243,2.14106 15.00154,5.16424 18.64117,10.00353 3.63962,4.83929 0.16977,11.49468 0.16977,11.49468 z"
       id="path4538"
       inkscape:connector-curvature="0"
       transform="translate(0,62.362183)"
       sodipodi:nodetypes="cccscssssc" />
    <path
       style="fill:#002255;stroke:#000000;stroke-width:1px;stroke-linecap:butt;stroke-linejoin:miter;stroke-opacity:1"
       d="m 393.60213,166.81141 c -1.34364,2.35137 -20.40651,23.72362 -20.40651,23.72362 l 14.44412,-15.45185 z"
       id="path4540"
       inkscape:connector-curvature="0"
       transform="translate(0,62.362183)"
       sodipodi:nodetypes="cccc" />
    <path
       style="fill:#002255;stroke:#000000;stroke-width:1px;stroke-linecap:butt;stroke-linejoin:miter;stroke-opacity:1"
       d="m 393.39219,167.10534 0.12597,30.48379 -1.84751,-19.81867 z"
       id="path4542"
       inkscape:connector-curvature="0"
       transform="translate(0,62.362183)"
       sodipodi:nodetypes="cccc" />
    <path
       style="fill:#002255;stroke:#000000;stroke-width:1px;stroke-linecap:butt;stroke-linejoin:miter;stroke-opacity:1"
       d="m 393.39219,167.2313 6.50825,8.85962 29.39209,26.20095 z"
       id="path4544"
       inkscape:connector-curvature="0"
       transform="translate(0,62.362183)"
       sodipodi:nodetypes="cccc" />
    <path
       style="fill:#165016;stroke:#000000;stroke-width:1px;stroke-linecap:butt;stroke-linejoin:miter;stroke-opacity:1"
       d="m 256.63497,272.49698 c 0,0 -13.41487,-0.8796 -16.12366,5.37456 1.32212,7.26189 0.9685,11.93953 5.37455,14.78002 4.9081,3.16416 11.04312,2.38711 17.46731,-1.34364 1.5535,-10.11304 -6.7182,-18.81094 -6.7182,-18.81094 z"
       id="path4546"
       inkscape:connector-curvature="0"
       transform="translate(0,62.362183)"
       sodipodi:nodetypes="ccscc" />
    <path
       sodipodi:nodetypes="ccscc"
       inkscape:connector-curvature="0"
       id="path4548"
       d="m 546.28758,322.87214 c 0,0 -5.46951,12.28076 -0.53992,16.98727 7.27053,1.27374 11.53647,3.22492 15.72671,0.0747 4.66769,-3.50913 6.06268,-9.53377 4.78674,-16.85229 -8.94981,-4.95862 -19.97353,-0.20973 -19.97353,-0.20973 z"
       style="fill:#165016;stroke:#000000;stroke-width:1px;stroke-linecap:butt;stroke-linejoin:miter;stroke-opacity:1" />
    <path
       style="fill:none;stroke:#000000;stroke-width:1px;stroke-linecap:butt;stroke-linejoin:miter;stroke-opacity:1"
       d="m 506.40115,535.85413 c 0,0 -8.78839,-21.21881 -16.62668,-36.5787 -6.21381,-12.17656 -9.02591,-41.32917 -9.02591,-41.32917"
       id="path4562"
       inkscape:connector-curvature="0"
       transform="translate(0,62.362183)"
       sodipodi:nodetypes="csc" />
    <path
       style="fill:none;stroke:#000000;stroke-width:1px;stroke-linecap:butt;stroke-linejoin:miter;stroke-opacity:1"
       d="m 361.03647,457.94626 2.37524,-5.10677"
       id="path4564"
       inkscape:connector-curvature="0"
       transform="translate(0,62.362183)"
       sodipodi:nodetypes="cc" />
    <path
       style="fill:none;stroke:#000000;stroke-width:2;stroke-linecap:butt;stroke-linejoin:miter;stroke-miterlimit:4;stroke-opacity:1;stroke-dasharray:none"
       d="m 203.7292,812.20226 c 0,0 16.30247,8.41094 25.02527,11.08502 15.11905,4.63492 30.95694,6.81863 46.69144,8.39774 10.08509,1.01214 25.00879,1.12787 34.72445,0.0144 4.72991,-0.54207 18.51723,-5.05306 18.51723,-5.05306"
       id="path4609"
       inkscape:connector-curvature="0"
       sodipodi:nodetypes="csssc" />
    <path
       sodipodi:nodetypes="csssc"
       inkscape:connector-curvature="0"
       id="path4611"
       d="m 540.98103,853.59395 c 0,0 -18.01739,3.44784 -27.1404,3.5412 -15.81271,0.16179 -31.62039,-2.23085 -47.15763,-5.17404 -9.95866,-1.88645 -24.30373,-6.00335 -33.3059,-9.82366 -4.38256,-1.85984 -16.32706,-10.09199 -16.32706,-10.09199"
       style="fill:none;stroke:#000000;stroke-width:2;stroke-linecap:butt;stroke-linejoin:miter;stroke-miterlimit:4;stroke-opacity:1;stroke-dasharray:none" />
    <path
       style="fill:none;stroke:#000000;stroke-width:1px;stroke-linecap:butt;stroke-linejoin:miter;stroke-opacity:1"
       d="m 343.14794,640.97334 2.82802,2.23421 3.18431,1.67009"
       id="path4613"
       inkscape:connector-curvature="0"
       transform="translate(0,62.362183)"
       sodipodi:nodetypes="ccc" />
    <path
       style="fill:none;stroke:#000000;stroke-width:1px;stroke-linecap:butt;stroke-linejoin:miter;stroke-opacity:1"
       d="m 455.69699,650.97649 c -0.47505,0 -5.3515,1.62068 -5.3515,1.62068 l -4.39419,-0.23753"
       id="path4615"
       inkscape:connector-curvature="0"
       transform="translate(0,62.362183)"
       sodipodi:nodetypes="ccc" />
    <path
       style="fill:#447821;fill-opacity:1;stroke:#000000;stroke-width:1px;stroke-linecap:butt;stroke-linejoin:miter;stroke-opacity:1"
       d="m 415.35228,670.54992 -11.47361,32.02029 c 0,0 23.42794,0.79293 25.1749,-13.35692 1.03393,-8.37456 -13.70129,-18.66337 -13.70129,-18.66337 z"
       id="path4617"
       inkscape:connector-curvature="0"
       transform="translate(0,62.362183)"
       sodipodi:nodetypes="ccsc" />
    <path
       sodipodi:nodetypes="cscsc"
       inkscape:connector-curvature="0"
       id="path4619"
       d="m 363.15571,764.82168 c 0,0 3.49648,-8.65999 5.53581,-12.65528 2.1193,-4.15193 9.163,-17.358 9.163,-17.358 0,0 -28.18336,3.19724 -29.93032,17.34709 -1.03393,8.37456 15.23151,12.66619 15.23151,12.66619 z"
       style="fill:#447821;fill-opacity:1;stroke:#000000;stroke-width:1px;stroke-linecap:butt;stroke-linejoin:miter;stroke-opacity:1" />
    <path
       style="opacity:0.5;fill:#8b0044;fill-opacity:1;stroke:#000000;stroke-width:1px;stroke-linecap:butt;stroke-linejoin:miter;stroke-opacity:1;filter:url(#filter4633)"
       d="m 363.53822,452.79649 c 0,0 -14.26526,36.04705 -25.2772,51.81406 -11.83313,16.9428 -42.24064,44.42406 -42.24064,44.42406 l 9.48945,3.19113 c 0,0 33.36103,-27.76757 43.83621,-45.26382 8.17246,-13.65011 16.45957,-42.99643 16.79548,-44.67598 0.33591,-1.67955 -2.6033,-9.48945 -2.6033,-9.48945 z"
       id="path4627"
       inkscape:connector-curvature="0"
       transform="translate(0,62.362183)"
       sodipodi:nodetypes="csccssc" />
  </g>
</svg>
